<svg xmlns="http://www.w3.org/2000/svg" width="64" height="64" fill="none" viewBox="0 0 64 64" id="ai">
  <path fill="#000" fill-rule="evenodd" d="M41.9502 3.55654C41.7432 2.64607 40.9337 2 40 2C39.0663 2 38.2568 2.64607 38.0498 3.55654L36.9432 8.42294C36.8144 8.98946 36.6067 9.52473 36.332 10.0168C32.0949 7.0855 27.8149 4.89029 23.78 3.54532C16.7579 1.20461 9.82865 1.26598 5.54732 5.54731C1.26598 9.82865 1.20462 16.7579 3.54532 23.78C4.4323 26.441 5.68907 29.2085 7.28286 32C5.68907 34.7915 4.4323 37.559 3.54532 40.22C1.20462 47.2421 1.26598 54.1714 5.54731 58.4527C9.82865 62.734 16.7579 62.7954 23.78 60.4547C26.441 59.5677 29.2085 58.3109 32 56.7171C34.7915 58.3109 37.559 59.5677 40.22 60.4547C47.2421 62.7954 54.1714 62.734 58.4527 58.4527C62.734 54.1714 62.7954 47.2421 60.4547 40.22C59.5677 37.559 58.3109 34.7915 56.7171 32C58.3109 29.2085 59.5677 26.441 60.4547 23.78C62.7954 16.7579 62.734 9.82865 58.4527 5.54731C57.6716 4.76626 56.4053 4.76626 55.6243 5.54731C54.8432 6.32836 54.8432 7.59469 55.6243 8.37574C58.2571 11.0086 58.8503 15.944 56.66 22.5151C56.0601 24.3146 55.264 26.1889 54.2813 28.1027C52.2308 25.0849 49.8053 22.0839 47.0461 19.2034C47.2197 19.1468 47.3968 19.0978 47.5771 19.0568L52.4435 17.9502C53.3539 17.7432 54 16.9337 54 16C54 15.0663 53.3539 14.2568 52.4435 14.0498L47.5771 12.9432C45.3262 12.4314 43.5686 10.6738 43.0568 8.42294L41.9502 3.55654ZM43.8606 21.6622C43.4894 22.2393 43.2142 22.8848 43.0568 23.5771L41.9502 28.4435C41.7432 29.3539 40.9337 30 40 30C39.0663 30 38.2568 29.3539 38.0498 28.4435L36.9432 23.5771C36.4314 21.3262 34.6738 19.5686 32.4229 19.0568L27.5565 17.9502C26.6461 17.7432 26 16.9337 26 16C26 15.0663 26.6461 14.2568 27.5565 14.0498L32.4229 12.9432C32.6843 12.8838 32.9391 12.8075 33.186 12.7157C29.5212 10.2768 25.8868 8.46396 22.5151 7.34005C15.944 5.14968 11.0086 5.74289 8.37574 8.37574C5.74289 11.0086 5.14969 15.944 7.34006 22.5151C7.93989 24.3146 8.73596 26.1889 9.7187 28.1027C12.0406 24.6856 14.8431 21.29 18.0666 18.0665C18.8476 17.2855 20.1139 17.2855 20.895 18.0665C21.676 18.8476 21.676 20.1139 20.895 20.895C17.2994 24.4905 14.2947 28.2741 11.9475 32C14.2947 35.7259 17.2994 39.5095 20.895 43.105C24.4905 46.7006 28.2741 49.7053 32 52.0525C35.7259 49.7053 39.5095 46.7006 43.105 43.105C46.7006 39.5095 49.7053 35.7259 52.0525 32C49.8716 28.5382 47.1232 25.0266 43.8606 21.6622ZM35.6384 16C37.5142 15.0427 39.0427 13.5142 40 11.6384C40.9573 13.5142 42.4858 15.0427 44.3616 16C42.4858 16.9573 40.9573 18.4858 40 20.3616C39.0427 18.4858 37.5142 16.9573 35.6384 16ZM54.2813 35.8973C51.9594 39.3144 49.1569 42.71 45.9335 45.9335C42.71 49.1569 39.3144 51.9594 35.8973 54.2813C37.8111 55.264 39.6854 56.0601 41.4849 56.66C48.056 58.8503 52.9914 58.2571 55.6243 55.6243C58.2571 52.9914 58.8503 48.056 56.66 41.4849C56.0601 39.6854 55.264 37.8111 54.2813 35.8973ZM28.1027 54.2813C24.6856 51.9594 21.29 49.1569 18.0666 45.9335C14.8431 42.71 12.0406 39.3144 9.7187 35.8973C8.73596 37.8111 7.93989 39.6854 7.34006 41.4849C5.14969 48.056 5.74289 52.9914 8.37574 55.6243C11.0086 58.2571 15.944 58.8503 22.5151 56.66C24.3146 56.0601 26.1889 55.264 28.1027 54.2813Z" clip-rule="evenodd"></path>
</svg>
