<svg width="30" height="24" viewBox="0 0 30 24" fill="none" xmlns="http://www.w3.org/2000/svg">
<path fill-rule="evenodd" clip-rule="evenodd" d="M5.54161 8.01212C5.19206 8.40419 4.63278 8.71343 4.0735 8.66925C4.00359 8.13913 4.2774 7.57587 4.59782 7.22798C4.94737 6.82486 5.55909 6.53771 6.05428 6.51562C6.11254 7.06784 5.88533 7.609 5.54161 8.01212ZM6.0482 8.77416C5.55549 8.74728 5.10591 8.91462 4.74277 9.04978C4.50908 9.13675 4.31119 9.21041 4.16064 9.21041C3.99168 9.21041 3.78562 9.13282 3.55426 9.0457C3.25111 8.93154 2.90451 8.80103 2.54105 8.80729C1.70796 8.81834 0.933125 9.26563 0.50784 9.97798C-0.366035 11.4027 0.280632 13.5121 1.12538 14.6718C1.53901 15.2461 2.03421 15.8756 2.6867 15.8535C2.97376 15.8432 3.18025 15.7602 3.39395 15.6742C3.63998 15.5753 3.89556 15.4725 4.29463 15.4725C4.67986 15.4725 4.92427 15.5726 5.15888 15.6687C5.38196 15.7601 5.59619 15.8479 5.91421 15.8425C6.59001 15.8314 7.01529 15.2682 7.42893 14.6939C7.87531 14.0775 8.07147 13.4759 8.10123 13.3846L8.10472 13.3741C8.10401 13.3734 8.09849 13.371 8.08876 13.3668C7.93954 13.302 6.79902 12.8071 6.78808 11.48C6.7771 10.3661 7.69272 9.80167 7.83685 9.71283L7.83687 9.71282C7.84563 9.70742 7.85154 9.70378 7.85421 9.70188C7.27163 8.8846 6.3628 8.79625 6.0482 8.77416ZM10.7246 15.7818V7.17285H14.1327C15.8921 7.17285 17.1214 8.32145 17.1214 10.0002C17.1214 11.6789 15.8688 12.8385 14.0861 12.8385H12.1345V15.7818H10.7246ZM12.1367 8.29919H13.7621C14.9855 8.29919 15.6846 8.91767 15.6846 10.0055C15.6846 11.0934 14.9855 11.7174 13.7563 11.7174H12.1367V8.29919ZM21.7779 14.7491C21.4051 15.4228 20.5837 15.848 19.6981 15.848C18.3873 15.848 17.4727 15.108 17.4727 13.9925C17.4727 12.8881 18.3582 12.2531 19.9952 12.1592L21.7546 12.0598V11.5849C21.7546 10.8836 21.2711 10.5026 20.4089 10.5026C19.6981 10.5026 19.1796 10.8505 19.0748 11.3806H17.8047C17.8455 10.2651 18.9524 9.45337 20.4497 9.45337C22.0634 9.45337 23.1121 10.2541 23.1121 11.4966V15.7817H21.8071V14.7491H21.7779ZM20.075 14.8264C19.3234 14.8264 18.8457 14.4841 18.8457 13.9595C18.8457 13.4183 19.3059 13.1035 20.1856 13.0538L21.7528 12.96V13.4459C21.7528 14.2521 21.0304 14.8264 20.075 14.8264ZM27.4392 16.1186C26.8741 17.6262 26.2274 18.1231 24.8525 18.1231C24.7476 18.1231 24.3981 18.1121 24.3165 18.09V17.0574C24.4039 17.0684 24.6195 17.0795 24.7302 17.0795C25.3535 17.0795 25.7031 16.831 25.9186 16.1849L26.0468 15.8039L23.6582 9.53625H25.1321L26.7925 14.6221H26.8216L28.482 9.53625H29.9151L27.4392 16.1186Z" fill="#171717"/>
</svg>
