<svg xmlns="http://www.w3.org/2000/svg" viewBox="0 0 24 24" id="kitchen">
  <path fill="none" stroke="#303c42" stroke-linecap="round" stroke-linejoin="round" d="M4.5 18.5h15M6.5 11.5c0 1.2 1.5 3 1.5 3m9.5-3c0 1.2-1.5 3-1.5 3M12 11.5v3"></path>
  <path fill="none" stroke="#303c42" stroke-linecap="round" stroke-linejoin="round" d="M7.7 3.7c-2.7-.7-5.4 1-6 3.7-.5 2.3.7 4.7 2.8 5.6m15 .1C22 11.9 23.1 9 22 6.5c-1-2.1-3.3-3.3-5.6-2.8M4.5 13.1V21c0 .8.7 1.5 1.5 1.5h12c.8 0 1.5-.7 1.5-1.5v-7.9"></path>
  <path fill="none" stroke="#303c42" stroke-linecap="round" stroke-linejoin="round" d="M6.5 7C6.5 4 9 1.5 12 1.5S17.5 4 17.5 7"></path>
</svg>
