<svg xmlns="http://www.w3.org/2000/svg" enable-background="new 0 0 66 66" viewBox="0 0 66 66" id="community">
  <g>
    <path fill="none" stroke="#000" stroke-linecap="round" stroke-linejoin="round" stroke-miterlimit="10" stroke-width="1.5" d="M24.81 53.19v-.01c0-.02 0-.05-.01-.07V53.1c-.02-.18-.04-.36-.08-.53-.04-.18-.08-.35-.14-.52-.16-.48-.4-.94-.69-1.34-.59-.8-1.44-1.42-2.45-1.74l-.94-.29-3.19-1v-2.2M9.27 45.71v1.97l-3.19 1-.94.29c-.19.06-.37.13-.55.21-.12.05-.24.11-.36.18-.13.07-.25.15-.37.23-.1.07-.2.14-.29.21-.13.11-.26.23-.38.35-.18.17-.34.36-.5.56-.6.81-.94 1.8-.94 2.86 0 1.61.66 3.06 1.71 4.11.13.13.27.26.41.38.29.24.6.45.93.63.16.09.33.17.51.24.15.07.3.13.46.18.02 0 .05.01.07.02.18.06.37.1.56.14.14.03.28.06.43.07.07.01.14.02.21.02.17.02.34.03.52.03h4 3.47 3.98c.71 0 1.39-.13 2.01-.36"></path>
    <line x1="6.08" x2="11.56" y1="48.68" y2="59.39" fill="none" stroke="#000" stroke-linecap="round" stroke-linejoin="round" stroke-miterlimit="10" stroke-width="1.5"></line>
    <line x1="20.5" x2="15.03" y1="48.68" y2="59.39" fill="none" stroke="#000" stroke-linecap="round" stroke-linejoin="round" stroke-miterlimit="10" stroke-width="1.5"></line>
    <path fill="none" stroke="#000" stroke-linecap="round" stroke-linejoin="round" stroke-miterlimit="10" stroke-width="1.5" d="M11.56 59.39L6.08 48.68l3.18-1c0 2.82 8.05 2.82 8.05 0l3.19 1-5.47 10.71M20.33 39.62c0 2.42-1.19 4.56-3.02 5.86-1.18.86-2.63 1.35-4.19 1.35-1.42 0-2.74-.4-3.85-1.12-.46-.27-.88-.61-1.26-.99-1.3-1.3-2.11-3.11-2.11-5.1 0 0 0-.01-.01-.03"></path>
    <path fill="none" stroke="#000" stroke-linecap="round" stroke-linejoin="round" stroke-miterlimit="10" stroke-width="1.5" d="M6.96 31.44c0 0-.39-5.92 8.64-3.24 0 0 8.31 2.53 4.74 11.42l-1.69-3.02c-.8-1.43-2.19-2.43-3.8-2.72-1.21-.22-2.89-.42-5.12-.47L6.96 31.44c-4.51 2.12-1.05 8.18-1.05 8.18.68-3.97 2.27-4.65 3.81-6.21M44.54 51.04V37.2c0 0-.34-3.46 2.43-3.85 0 0-.42-6.35 9.25-3.47 0 0 .2.06.53.19 3.28 1.37 5.37 4.63 5.37 8.18v12.81"></path>
    <path fill="none" stroke="#000" stroke-linecap="round" stroke-linejoin="round" stroke-miterlimit="10" stroke-width="1.5" d="M44.89 59.54c.86.57 1.89.9 3 .9h10.86c3.04 0 5.5-2.47 5.5-5.51 0-1-.32-1.94-.88-2.71-.34-.46-.76-.85-1.25-1.16-.33-.21-.69-.38-1.07-.5l-2.6-.81-1.32-.41v-1.98M49.51 47.36v1.98l-1.32.41-2.6.81c-.38.12-.73.28-1.05.48-.96.61-1.66 1.54-1.97 2.63M58.45 49.75c0 6.45-10.26 6.45-10.26 0"></path>
    <path fill="none" stroke="#000" stroke-linecap="round" stroke-linejoin="round" stroke-miterlimit="10" stroke-width="1.5" d="M59.14 38.68v4.29c0 3.21-2.61 5.82-5.82 5.82l0 0c-3.21 0-5.82-2.61-5.82-5.82l0-4.29c0 0 5.6-1.09 6.91-3.32C54.41 35.36 54.85 38.28 59.14 38.68zM28.8 49.57v2.29l-1.46.45v.01l-2.54.79h-.01l-.02.01-.3.09c-2.1.66-3.54 2.61-3.54 4.82 0 .34.03.68.09 1 .02.15.05.3.08.44.12.48.29.93.51 1.36.05.1.11.21.17.31.26.44.57.84.93 1.19.55.55 1.21 1 1.93 1.3.04.02.08.04.12.05.1.05.21.09.32.12.04.02.08.03.12.04.28.09.58.15.88.2.3.05.62.07.93.07h.13 11.74H39c.13 0 .26 0 .39-.01.39-.03.77-.09 1.13-.18.24-.07.48-.14.71-.23.12-.05.23-.1.34-.15.38-.17.74-.38 1.07-.64.11-.08.22-.17.32-.26 1.3-1.11 2.12-2.76 2.12-4.61 0-1.1-.36-2.15-.98-2.99-.1-.14-.21-.27-.33-.4-.09-.11-.2-.21-.3-.31-.15-.14-.32-.28-.49-.4-.13-.09-.27-.18-.41-.26-.14-.08-.28-.16-.43-.22-.04-.03-.08-.05-.12-.06-.16-.07-.32-.13-.48-.18l-.29-.09-2.58-.81-1.45-.45v-2.29M41.25 53.12c-.8 1.24-3.22 5.54-2.36 10.99M27.34 52.31c0 4.2 11.34 4.2 11.34 0M27.14 64.12c.86-5.48-1.57-9.79-2.37-11.01"></path>
    <path fill="none" stroke="#000" stroke-linecap="round" stroke-linejoin="round" stroke-miterlimit="10" stroke-width="1.5" d="M26.15,41.16v3.01c0,1.9,0.77,3.61,2.01,4.85c0.2,0.2,0.41,0.39,0.64,0.55c1.16,0.92,2.63,1.46,4.21,1.46
		c1.59,0,3.05-0.54,4.21-1.46c1.61-1.25,2.64-3.2,2.64-5.4v-2.93"></path>
    <path fill="none" stroke="#000" stroke-linecap="round" stroke-linejoin="round" stroke-miterlimit="10" stroke-width="1.5" d="M37.13 33.45c-1.56-2.37-6.4-2.6-9.65.08-.49.41-.91.89-1.29 1.4l-1.53 2.04c.94-.2 1.77-.54 2.08-.19-1.85 1.98-.69 4.35-.66 4.48.08-.15 1.11-1.97 3.78-3.74 0 0 1.9 1.92 6.01 1.02 1.61-.36 3.41.4 3.99 2.72C41.87 32.65 37.13 33.45 37.13 33.45zM42.83 15.62c-.14.79-.38 1.56-.73 2.29-1.29 2.72-3.39 4.49-5.74 5.34-.9.32-1.61 1.02-2.02 1.88l-.01.03c-.53 1.1-2.09 1.1-2.62 0-.42-.88-1.14-1.6-2.06-1.93-2.59-.94-4.85-2.98-6.04-6.15-.18-.47-.31-.95-.4-1.43v-.01M23.93 10.06c3.72-7.89 14.43-7.92 18.15-.02"></path>
    <path fill="none" stroke="#000" stroke-linecap="round" stroke-linejoin="round" stroke-miterlimit="10" stroke-width="1.5" d="M23.38 8.21c1.01 2.38.92 5.11-.18 7.45-1.29 2.72-3.39 4.49-5.74 5.34-.9.32-1.61 1.02-2.02 1.89l-.01.02c-.52 1.1-2.09 1.1-2.61 0l0 0c-.42-.88-1.14-1.6-2.06-1.93C8.17 20.04 5.91 18 4.71 14.84c-.75-2-.78-4.23-.01-6.22C8.09-.22 19.74-.37 23.38 8.21zM61.17 8.21c1.01 2.38.92 5.11-.18 7.45-1.29 2.72-3.39 4.49-5.74 5.34-.9.32-1.61 1.02-2.02 1.89l-.01.02c-.52 1.1-2.09 1.1-2.61 0l0 0c-.42-.88-1.14-1.6-2.06-1.93-2.59-.94-4.85-2.98-6.05-6.14-.75-2-.78-4.23-.01-6.22C45.88-.22 57.53-.37 61.17 8.21z"></path>
    <path fill="none" stroke="#000" stroke-linecap="round" stroke-linejoin="round" stroke-miterlimit="10" stroke-width="1.5" d="M14.06 17.81c0 0-5.53-2.91-5.5-6.6.01-1.88 1.55-3.4 3.44-3.39.94.01 1.55.61 2.13 1.09.59-.47 1.21-1.06 2.14-1.06 1.88.01 3.4 1.55 3.39 3.44C19.62 14.89 14.06 17.81 14.06 17.81zM51.85 17.81c0 0-5.53-2.91-5.5-6.6.01-1.88 1.55-3.4 3.44-3.39.94.01 1.55.61 2.13 1.09.59-.47 1.21-1.06 2.14-1.06 1.88.01 3.4 1.55 3.39 3.44C57.42 14.88 51.85 17.81 51.85 17.81zM32.96 20.05c0 0-5.53-2.91-5.5-6.6.01-1.88 1.55-3.4 3.44-3.39.94.01 1.55.61 2.13 1.09.59-.47 1.21-1.06 2.14-1.06 1.88.01 3.4 1.55 3.39 3.44C38.53 17.13 32.96 20.05 32.96 20.05z"></path>
  </g>
</svg>
