<svg width="24" height="24" viewBox="0 0 24 24" fill="none" xmlns="http://www.w3.org/2000/svg">
<path fill-rule="evenodd" clip-rule="evenodd" d="M7.83145 2.25H12.9495C14.391 2.25 16.1006 2.29685 17.2444 3.30547C18.0083 3.97929 18.4092 5.05284 18.3166 6.20531C18.0028 10.1134 15.6651 12.3023 12.5304 12.3023H10.0061C9.57657 12.3023 9.29179 12.587 9.17064 13.358L8.46621 17.8388C8.42055 18.1296 8.29452 18.3008 8.0645 18.3216H4.91168C4.56184 18.3216 4.43753 18.0539 4.52898 17.4743L6.79934 3.10026C6.89026 2.52423 7.2054 2.25 7.83145 2.25Z" fill="#1B3D92"/>
<path fill-rule="evenodd" clip-rule="evenodd" d="M11.123 6.75H16.2359C18.9808 6.75 20.0144 8.13948 19.8548 10.1843C19.5917 13.5551 17.5536 15.419 14.8504 15.419H13.4854C13.115 15.419 12.8657 15.664 12.7648 16.3296L12.1794 20.1938C12.1414 20.4448 12.0094 20.5923 11.8111 20.6102H8.60506C8.30338 20.6102 8.19609 20.3794 8.27501 19.8795L10.2329 7.48334C10.3113 6.98648 10.583 6.75 11.123 6.75Z" fill="#00A2D3"/>
<path fill-rule="evenodd" clip-rule="evenodd" d="M9 13.1403L9.89368 7.48325C9.9722 6.98652 10.2441 6.75004 10.7841 6.75004H15.897C16.7434 6.75004 17.4271 6.88214 17.963 7.12548C17.4493 10.6037 15.1997 12.5363 12.2539 12.5363H9.72951C9.39735 12.5363 9.14912 12.7061 9 13.1403Z" fill="#1B2E7F"/>
</svg>
