<svg width="40" height="40" viewBox="0 0 40 40" fill="none" xmlns="http://www.w3.org/2000/svg">
<path d="M14.998 11.6632C14.998 8.90064 17.2376 6.66113 20.0001 6.66113C22.7627 6.66113 25.0022 8.90064 25.0022 11.6632C25.6655 10.9999 26.5652 10.6273 27.5033 10.6273C28.4413 10.6273 29.341 10.9999 30.0043 11.6632" stroke="white" stroke-width="1.5" stroke-linecap="round" stroke-linejoin="round"/>
<path d="M14.998 21.6674C14.998 18.9048 17.2376 16.6653 20.0001 16.6653C22.7627 16.6653 25.0022 18.9048 25.0022 21.6674" stroke="white" stroke-width="1.5" stroke-linecap="round" stroke-linejoin="round"/>
<path d="M20.0002 16.6653C19.9999 14.1315 18.1052 11.998 15.5892 11.6983C13.0732 11.3986 10.7304 13.0273 10.1349 15.4901C10.0792 15.7219 9.92211 15.9163 9.70718 16.0194C9.49226 16.1224 9.24234 16.1233 9.02675 16.0216C7.73498 15.4974 6.25277 15.9558 5.48237 17.1176C4.71196 18.2795 4.86662 19.8232 5.85219 20.8091L6.98711 21.944" stroke="white" stroke-width="1.5" stroke-linecap="round" stroke-linejoin="round"/>
<path d="M30.0041 11.6632C31.0929 12.742 31.3561 14.4023 30.6544 15.7649" stroke="white" stroke-width="1.5" stroke-linecap="round" stroke-linejoin="round"/>
<path fill-rule="evenodd" clip-rule="evenodd" d="M33.0053 31.0046V31.0046C31.116 33.5237 28.1509 35.0062 25.002 35.0062H14.9978C11.8489 35.0062 8.88382 33.5237 6.99449 31.0046V31.0046C5.69572 29.2729 4.99365 27.1667 4.99365 25.0021V25.0021C4.99365 23.1604 6.48666 21.6674 8.32837 21.6674H31.6714C33.5131 21.6674 35.0062 23.1604 35.0062 25.0021V25.0021C35.0062 27.1667 34.3041 29.2729 33.0053 31.0046V31.0046Z" stroke="white" stroke-width="1.5" stroke-linecap="round" stroke-linejoin="round"/>
<path d="M33.3106 22.1145C34.3001 20.7588 34.8346 19.1244 34.8373 17.4459V16.4455C34.8373 15.893 34.3894 15.4451 33.8369 15.4451H32.8363C29.1066 15.4487 25.8749 18.0306 25.0479 21.6674" stroke="white" stroke-width="1.5" stroke-linecap="round" stroke-linejoin="round"/>
</svg>
